<svg width="30" height="40" viewBox="0 0 30 40" fill="none" xmlns="http://www.w3.org/2000/svg">
<path d="M29.1468 25.5132C29.3424 21.9484 28.1035 16.1149 25.1041 11.3186C25.0389 11.189 24.8759 11.2538 24.9085 11.3834C25.1041 12.0964 25.1693 13.4251 23.9956 13.3603C21.9417 13.2306 24.0608 8.82319 19.5291 5.80926C19.4313 5.74444 19.3335 5.84167 19.3661 5.93889C19.6922 6.52223 19.8552 8.36948 19.1379 8.98523C18.5511 9.47134 17.5078 9.34171 16.4972 7.68891C14.8018 4.93425 15.4539 2.01754 16.595 0.170298C16.6928 0.0406664 16.5624 -0.0241492 16.4645 0.00825861C10.2375 2.04995 8.99867 9.34171 7.66198 11.9992C7.43377 12.4529 7.23815 12.6797 6.87953 12.6473C5.73846 12.5825 6.55351 10.1519 6.94474 9.34171C7.00994 9.21208 6.87953 9.14727 6.78172 9.24449C3.58672 12.5501 0.685134 18.2215 0.130898 23.4715C0.1635 23.3419 0.0656938 23.8928 0.0330917 24.3141C0.0330917 24.4762 0.000489649 24.6382 0.000489649 24.8002V25.3836C-0.0647145 33.3883 6.3905 39.9023 14.4432 39.9995C22.4959 40.0643 29.049 33.6476 29.1468 25.6428V25.5132ZM14.5084 32.2216C10.7918 32.1892 7.79239 29.1753 7.82499 25.4484C7.85759 21.7215 10.8896 18.7724 14.6388 18.8048C18.3881 18.8372 21.3549 21.8511 21.3223 25.578C21.2897 29.3049 18.2577 32.254 14.5084 32.2216Z" fill="#F04E23"/>
</svg>
